<svg width="160" height="30" viewBox="0 0 160 30" fill="none" xmlns="http://www.w3.org/2000/svg">
<path d="M0.28 14.84C0.28 12.0667 0.853333 9.6 2 7.44C3.17333 5.25333 4.82667 3.56 6.96 2.36C9.09333 1.13333 11.5467 0.52 14.32 0.52C17.84 0.52 20.8 1.46667 23.2 3.36C25.6 5.22667 27.1467 7.77333 27.84 11H19.4C18.8933 9.93333 18.1867 9.12 17.28 8.56C16.4 8 15.3733 7.72 14.2 7.72C12.3867 7.72 10.9333 8.37333 9.84 9.68C8.77333 10.96 8.24 12.68 8.24 14.84C8.24 17.0267 8.77333 18.7733 9.84 20.08C10.9333 21.36 12.3867 22 14.2 22C15.3733 22 16.4 21.72 17.28 21.16C18.1867 20.6 18.8933 19.7867 19.4 18.72H27.84C27.1467 21.9467 25.6 24.5067 23.2 26.4C20.8 28.2667 17.84 29.2 14.32 29.2C11.5467 29.2 9.09333 28.6 6.96 27.4C4.82667 26.1733 3.17333 24.48 2 22.32C0.853333 20.1333 0.28 17.64 0.28 14.84ZM39.3925 23H48.1525V29H31.5525V0.799998H39.3925V23ZM69.0409 24.4H59.0409L57.5209 29H49.2809L59.5609 0.799998H68.6009L78.8409 29H70.5609L69.0409 24.4ZM67.0809 18.4L64.0409 9.28L61.0409 18.4H67.0809ZM114.316 0.799998V29H106.476V13.44L101.156 29H94.5963L89.2363 13.32V29H81.3963V0.799998H90.8763L97.9563 19.12L104.876 0.799998H114.316ZM126.619 0.799998V29H118.779V0.799998H126.619ZM144.604 29.28C141.964 29.28 139.537 28.6667 137.324 27.44C135.11 26.1867 133.35 24.4667 132.044 22.28C130.764 20.0667 130.124 17.5733 130.124 14.8C130.124 12.0267 130.764 9.54667 132.044 7.36C133.35 5.14667 135.11 3.42667 137.324 2.2C139.537 0.973333 141.964 0.359999 144.604 0.359999C147.27 0.359999 149.697 0.973333 151.884 2.2C154.097 3.42667 155.844 5.14667 157.124 7.36C158.404 9.54667 159.044 12.0267 159.044 14.8C159.044 17.5733 158.404 20.0667 157.124 22.28C155.844 24.4667 154.097 26.1867 151.884 27.44C149.67 28.6667 147.244 29.28 144.604 29.28ZM144.604 22C146.604 22 148.177 21.3467 149.324 20.04C150.497 18.7333 151.084 16.9867 151.084 14.8C151.084 12.56 150.497 10.8 149.324 9.52C148.177 8.21333 146.604 7.56 144.604 7.56C142.577 7.56 140.99 8.21333 139.844 9.52C138.697 10.8 138.124 12.56 138.124 14.8C138.124 17.0133 138.697 18.7733 139.844 20.08C140.99 21.36 142.577 22 144.604 22Z" fill="#FFDB58"/>
</svg>
